<svg xmlns="http://www.w3.org/2000/svg" width="100" height="31.475" viewBox="0 0 100 31.475"><defs><style>.a{fill:#009925;}</style></defs><path class="a" d="M33.2,31.267c-4.983,0-9.065-3.3-8.632-8.865.367-4.866,3.349-11.282,11.9-11.282,3.383,0,7.682,2.333,7.532,8.732-.1,3.966-2.783,11.415-10.8,11.415M35.749,12.8c-1.75,0-3.249,2.216-4.033,7.715-.633,4.416-1.733,8.649,1.566,8.649,1.25,0,2.316-.067,3.249-3.966,1.966-9.382,1.966-12.4-.783-12.4m42.16-3.366c2.083-.133,3.483-1.6,3.3-3.283s-2.166-2.933-4.266-2.8-3.483,1.6-3.3,3.283c.183,1.666,2.166,2.916,4.266,2.8M22.185.555a3.865,3.865,0,0,0-4.449.783c2.016,1.183,5.133,7.349,4.3,13.715a16.536,16.536,0,0,1-2.25,6.7c-2.183,3.933-4.366,6.4-7.266,6.4-3.7,0-2.633-4.9-2.533-5.532.1-.617,1.633-10.282,1.816-11.365,1.7-9.065-3.6-9.615-7.232-9.632a8.859,8.859,0,0,0-2.15.25c.483.3.483,1.683.25,3.666,0,0-2.116,12.148-2.5,13.8S-.745,30.767,8.9,31.35c8.465.517,13.648-7.1,15.481-13.548,2.733-9.615.683-15.931-2.2-17.247M94.123,17.186a6.92,6.92,0,0,0,3.666-.867c2.25-1.566.05-5.2-5.382-5.2-8.465,0-11.765,7.982-11.548,11.948.317,5.8,3.716,8.3,8.5,8.3,3.549,0,6.666-2.016,8.715-5.482l-1.15-.55c-2.333,2.833-5.033,4.333-7.282,3.566-1.983-.683-2.983-2.35-2.033-7.049.633-3.1,1.366-5.866,3.466-8.032,1.25-1.283,2.4-1.166,2.95-.433.533.7.7,2,.1,3.8m4.583,14.131a1.283,1.283,0,1,1,1.3-1.283,1.309,1.309,0,0,1-1.3,1.283m0-2.416a1.117,1.117,0,1,0,1.1,1.116,1.1,1.1,0,0,0-1.1-1.116m.517,1.783h-.183c-.033,0-.033-.017-.05-.05l-.3-.467c0-.017-.017-.017-.033-.017h-.117c-.017,0-.017,0-.017.033v.433c0,.05-.017.05-.033.05h-.167c-.033,0-.033-.017-.033-.067V29.4c0-.033,0-.05.05-.05h.417c.333,0,.483.15.483.4a.38.38,0,0,1-.25.35c-.017,0-.033,0-.017.033l.3.483c0,.05-.017.067-.05.067m-.517-1.133h-.167c-.033,0-.033.017-.033.033v.35c0,.033,0,.033.033.033h.2a.176.176,0,0,0,.2-.2c0-.15-.067-.217-.233-.217M68.727,10.97a3.482,3.482,0,0,0-3.483.633c1.316.783,3.516,4.8,2.966,9.032a14.226,14.226,0,0,1-1.183,4.4c-1.117,2.766-2.7,4.316-4.6,4.316-2.416,0-1.716-3.266-1.65-3.683s1.25-7.865,1.383-8.582c1.1-6.066-2.35-6.416-4.733-6.416a5.8,5.8,0,0,0-1.416.167c.317.2.317,1.116.167,2.433,0,0-1.583,9.115-1.816,10.215-.25,1.1-.6,7.615,5.7,8,5.532.35,8.915-4.716,10.115-9.015,1.783-6.416.433-10.615-1.45-11.5M51.63.105a10.028,10.028,0,0,0-3.183.117l-.033.017c.317.2.317,1.116.167,2.433,0,0-.983,5.666-1.516,8.615l-.017.033c-.05.267-.083.517-.133.783-1.033,5.866-2.183,12.548-2.25,13.031-1.083,7.749,6.549,6.649,7.9,5.283-1.85-1.883-1.033-5.332-.9-6.066.683-3.866,1.95-10.032,3.316-18.1.583-3.466-.5-5.7-3.349-6.149m25.1,11.1a9.309,9.309,0,0,0-3.066.117h-.033c.3.183.3,1.083.167,2.35,0,0-.95,5.466-1.466,8.282v.033c-.05.25-.083.5-.133.75-.167.933-.333,1.883-.5,2.833l-.033.117c-.033.2-.05.383-.083.567-.45,3.316,1.866,4.833,5.366,4.883.167,0,.467,0,.633-.017.567-3.333,2.266-13.065,2.383-14,.567-3.333-.483-5.482-3.233-5.916" transform="translate(-0.006 -0.026)"/></svg>